<?xml version="1.0" encoding="utf-8"?>
<!-- Generator: Adobe Illustrator 17.1.0, SVG Export Plug-In . SVG Version: 6.00 Build 0)  -->
<!DOCTYPE svg PUBLIC "-//W3C//DTD SVG 1.1//EN" "http://www.w3.org/Graphics/SVG/1.1/DTD/svg11.dtd">
<svg version="1.1" id="Layer_1" xmlns="http://www.w3.org/2000/svg" xmlns:xlink="http://www.w3.org/1999/xlink" x="0px" y="0px"
	 viewBox="0 0 600 20.1" enable-background="new 0 0 600 20.1" xml:space="preserve">
<path fill="none" stroke="#000000" stroke-miterlimit="10" d="M-37.9,11"/>
<path fill="none" stroke="#000000" stroke-miterlimit="10" d="M562.1,11"/>
<path fill="#FDE4D8" d="M534,14.7L534,14.7l-214.2,0C317.5,6.2,309.7,0,300.6,0c-9.2,0-16.9,6.2-19.2,14.7H67.1v0H0.4V16h67v0H281
	c-0.3,1.3-0.4,2.6-0.4,4c0,0,0,0.1,0,0.1h39.9c0,0,0-0.1,0-0.1c0-1.4-0.1-2.7-0.4-4H534v0h67v-1.3H534z M305.8,13.4
	c-1.8,0.7-3.7,1.1-5.1,2.7c-0.2,0.2-0.5,0.2-0.7,0c-1.3-1.6-2.5-3.1-4.4-4c-0.6-0.3-0.1-1.1,0.5-0.9c1.6,0.8,2.8,2,3.9,3.3v-10
	c0-0.6,1-0.6,1,0v10c1.3-1,2.9-1.4,4.5-2C306.1,12.2,306.3,13.1,305.8,13.4z"/>
</svg>
